Coordinates
version=1
nRows=8
nColumns=40
inDegrees=yes

Units are S.I. units (second, meters, Newtons, ...)
If the header above contains a line with 'inDegrees', this indicates whether rotational values are in degrees (yes) or radians (no).

endheader
time	pelvis_tilt	pelvis_list	pelvis_rotation	pelvis_tx	pelvis_ty	pelvis_tz	hip_flexion_r	hip_adduction_r	hip_rotation_r	knee_angle_r	knee_angle_r_beta	ankle_angle_r	subtalar_angle_r	mtp_angle_r	hip_flexion_l	hip_adduction_l	hip_rotation_l	knee_angle_l	knee_angle_l_beta	ankle_angle_l	subtalar_angle_l	mtp_angle_l	lumbar_extension	lumbar_bending	lumbar_rotation	arm_flex_r	arm_add_r	arm_rot_r	elbow_flex_r	pro_sup_r	wrist_flex_r	wrist_dev_r	arm_flex_l	arm_add_l	arm_rot_l	elbow_flex_l	pro_sup_l	wrist_flex_l	wrist_dev_l
      7.98000000000000042633	      9.61135321681029175522	     -2.07135945166047497068	    179.61265202521121864265	      0.34994882794918652502	      0.74514625365685416281	     -0.61788535148828893639	     61.88940817199726041054	     -5.21554954366625889151	      6.76929937913573542829	     68.36199113605044885844	      1.19314182854325911975	     25.43787040981132818729	      0.00000000000000000000	      0.00000000000000000000	     62.44774917604095065826	    -12.93802469559390289078	     -7.43764747074817744732	     72.23942353522568282642	      1.26081579043237002047	     18.32594990896136977199	      0.00000000000000000000	      0.00000000000000000000	    -65.86517593742091492004	     -0.27504039391735224385	     -3.17642041103160632787	     62.67607126384678650766	      0.29184129935170727288	     30.67292088457300991422	      3.14729278881369811671	      8.37787178559259082533	      0.00000000000000000000	      0.00000000000000000000	     69.44067045057695963806	     -9.53946711264948632447	     84.40388701954442751685	      4.29240427173195016053	     85.23389395010940461361	      0.00000000000000000000	      0.00000000000000000000
      7.98500000000000031974	      9.63485294363693078878	     -2.04261230765669443699	    179.61287681011572203715	      0.34970901147970623324	      0.74559055847865784994	     -0.61766642086533196654	     61.82682458073495013195	     -5.24324902813955961989	      6.70522695238340471491	     68.25119360971646642611	      1.19120804690566606254	     25.39661234184379523526	      0.00000000000000000000	      0.00000000000000000000	     62.41536034396387577772	    -12.89946559097745115707	     -7.38411885487744790169	     72.18459122245485559688	      1.25985878603803591602	     18.29781361382494964118	      0.00000000000000000000	      0.00000000000000000000	    -65.90266091495469424899	     -0.20931854717765385754	     -3.15957656828679622762	     62.73300204053941797611	      0.27431339731548476379	     30.57440818480747779518	      3.16491331749537341267	      8.38788317895538071411	      0.00000000000000000000	      0.00000000000000000000	     69.44101908297628256150	     -9.50570654713215645870	     84.37289502574402888513	      4.30543152315683474995	     85.22993915554685884217	      0.00000000000000000000	      0.00000000000000000000
      7.99000000000000021316	      9.66317452540113919213	     -1.98654828255777404777	    179.61073988413613733428	      0.34944725367997708787	      0.74606946389131933994	     -0.61768004079500560266	     61.75617338434465608543	     -5.22646253251576986543	      6.62283772750795396433	     68.12959807635898812350	      1.18908580449285938840	     25.35815627116238957228	      0.00000000000000000000	      0.00000000000000000000	     62.39033431790334560674	    -12.93724931438322833799	     -7.36806335559058922513	     72.09417463271638837341	      1.25828071884867465080	     18.27347592530599840188	      0.00000000000000000000	      0.00000000000000000000	    -65.94265710200498631366	     -0.17765449974249167275	     -3.12490533544536308597	     62.77679125556817041343	      0.29434627016156938994	     30.48415586265189958226	      3.17794521986665490232	      8.39775997886238378953	      0.00000000000000000000	      0.00000000000000000000	     69.41340420452934267814	     -9.55101217008253300378	     84.38429723389415926249	      4.28187971694808311440	     85.25701105369802235145	      0.00000000000000000000	      0.00000000000000000000
      7.99500000000000010658	      9.69056847557620315570	     -1.99229009246600385907	    179.50739240708659849588	      0.34914135790582823127	      0.74633690047680312230	     -0.61811004610165953821	     61.74367849144609010636	     -5.04709570464107404320	      6.83295991966381421889	     68.11337426387098048508	      1.18880264554771764018	     25.34454282041997785768	      0.00000000000000000000	      0.00000000000000000000	     62.34333057800674282589	    -13.10199706532335461873	     -7.49662555792350193684	     72.07883428477381926314	      1.25801297926867539090	     18.28229866413562376692	      0.00000000000000000000	      0.00000000000000000000	    -65.95556704070619957747	     -0.28988013755922203973	     -3.08161839048384100792	     62.77828584741975959105	      0.32902269951726464958	     30.46876561744813116661	      3.18339263184838561216	      8.40073693561602219404	      0.00000000000000000000	      0.00000000000000000000	     69.46290301453838367252	     -9.53786930128092791392	     84.37550656683546890235	      4.29248160385762655977	     85.25318755369140433231	      0.00000000000000000000	      0.00000000000000000000
      8.00000000000000000000	      9.74917687342526662064	     -1.99913542317206882615	    179.61625021019403902756	      0.34879689718223033656	      0.74678048462864121682	     -0.61782438099235015283	     61.71741379582547892824	     -5.26774791281156673506	      6.59808569758315943687	     67.98120494703920257962	      1.18649585579889138565	     25.28689741800360124557	      0.00000000000000000000	      0.00000000000000000000	     62.34774589359992802429	    -12.91935848053836366489	     -7.39719476018720012434	     71.96071210130538986505	      1.25595135824750636644	     18.22352885466522920410	      0.00000000000000000000	      0.00000000000000000000	    -65.95550508797494160262	     -0.17159893473991139068	     -3.13391823662899282610	     62.80950703962093939481	      0.31931124013647260718	     30.35194557742877918827	      3.17775474230620602611	      8.40825877924899245386	      0.00000000000000000000	      0.00000000000000000000	     69.42060175400256127887	     -9.55008822824735936763	     84.39361153530494163988	      4.28589270885538553557	     85.28573743981559118765	      0.00000000000000000000	      0.00000000000000000000
      8.00500000000000078160	      9.77961710483166690722	     -1.98591159042089970832	    179.60705393759923254038	      0.34854120091518908664	      0.74722377876402756858	     -0.61766652434172153452	     61.68636735435556062157	     -5.28472105965615757128	      6.55789130760577521073	     67.88475539269265368603	      1.18481249351346296095	     25.23988625376579264525	      0.00000000000000000000	      0.00000000000000000000	     62.30375509864680338978	    -12.91405506339061126653	     -7.40346879337217789185	     71.88889032262626699321	      1.25469783173491689077	     18.20255032630299751872	      0.00000000000000000000	      0.00000000000000000000	    -65.96780965791025153067	     -0.13508650054471940671	     -3.11250938845362457030	     62.86785866475096185013	      0.31213629467042575127	     30.27817685281510406980	      3.16348136453060080342	      8.41180316884049439352	      0.00000000000000000000	      0.00000000000000000000	     69.44970430935119054539	     -9.50901800190780122080	     84.36678356227614017371	      4.30423874488114943659	     85.27843039109514222673	      0.00000000000000000000	      0.00000000000000000000
      8.00999999999999978684	      9.83487830912351235213	     -1.94150594347044913590	    179.60824437167016753847	      0.34823689613875008497	      0.74776225364160542330	     -0.61759414179612714957	     61.62477981597654519419	     -5.27384481153067774528	      6.49101904079793179392	     67.72549943001537542386	      1.18203295261131136051	     25.19256976720999219310	      0.00000000000000000000	      0.00000000000000000000	     62.28664140987261532700	    -12.92437220775427419994	     -7.39260603083491840692	     71.78720400873902462990	      1.25292307075336828426	     18.17472849827159819824	      0.00000000000000000000	      0.00000000000000000000	    -65.97539823322789231952	     -0.10026357095566727773	     -3.07436140655362555307	     62.91048424182356058054	      0.31942117450053642003	     30.20921975801084613522	      3.14931032434969360168	      8.41460146322640234473	      0.00000000000000000000	      0.00000000000000000000	     69.43897858594590388748	     -9.49542473788963015124	     84.34240596630209552131	      4.29725485368305104572	     85.27633000401931440138	      0.00000000000000000000	      0.00000000000000000000
      8.01500000000000056843	      9.86917590118801335564	     -1.94742047542269336446	    179.59756578475099786374	      0.34792064582381976301	      0.74809674639326395607	     -0.61771556211550815441	     61.60771874046260165869	     -5.27068973392368178565	      6.50414203951200331488	     67.66903011854719807161	      1.18104737719985730671	     25.16556311855272554112	      0.00000000000000000000	      0.00000000000000000000	     62.26367683431057287180	    -12.95101691990419290335	     -7.43643304510606206748	     71.74263537287428960099	      1.25214520131440609774	     18.15319000030506302323	      0.00000000000000000000	      0.00000000000000000000	    -65.96686371342507015925	     -0.12378409230273257347	     -3.06613017521710995439	     62.92824451569591559519	      0.34506797664251426250	     30.15925365499014176862	      3.14559707233910579305	      8.41804571671482371187	      0.00000000000000000000	      0.00000000000000000000	     69.43973661038369016296	     -9.46957683657461757321	     84.31667402368474029117	      4.30934721850838009516	     85.27016988230042215946	      0.00000000000000000000	      0.00000000000000000000
